<?xml version="1.0" encoding="UTF-8"?>
<svg xmlns="http://www.w3.org/2000/svg" width="88" height="57" viewBox="0 0 88 57" fill="none">
  <path d="M5.86286 40.4872H19L17.5 45H0V21H5.86286V40.4872Z" fill="#121216"></path>
  <path d="M76.4193 40.7607H67.5127L66.085 45H60L68.6346 21H75.3654L84 45H77.847L76.4193 40.7607ZM74.9235 36.2479L71.966 27.4615L69.0425 36.2479H74.9235Z" fill="#121216"></path>
  <path d="M50.3057 45C48.5623 45 47 44.7218 45.6189 44.1655C44.2377 43.6092 43.1283 42.7858 42.2906 41.6954C41.4755 40.605 41.0453 39.2921 41 37.7566H47.1811C47.2717 38.6245 47.5774 39.2921 48.0981 39.7594C48.6189 40.2045 49.2981 40.427 50.1358 40.427C50.9962 40.427 51.6755 40.2378 52.1736 39.8595C52.6717 39.459 52.9208 38.9138 52.9208 38.2239C52.9208 37.6453 52.717 37.1669 52.3094 36.7886C51.9245 36.4103 51.4377 36.0988 50.8491 35.854C50.283 35.6092 49.4679 35.331 48.4038 35.0195C46.8641 34.5522 45.6075 34.0848 44.634 33.6175C43.6604 33.1502 42.8226 32.4604 42.1208 31.548C41.4189 30.6356 41.0679 29.4451 41.0679 27.9764C41.0679 25.7955 41.8717 24.0932 43.4792 22.8693C45.0868 21.6231 47.1811 21 49.7623 21C52.3887 21 54.5057 21.6231 56.1132 22.8693C57.7208 24.0932 58.5811 25.8067 58.6943 28.0097H52.4113C52.366 27.2531 52.083 26.6634 51.5623 26.2406C51.0415 25.7955 50.3736 25.573 49.5585 25.573C48.8566 25.573 48.2906 25.7622 47.8604 26.1405C47.4302 26.4965 47.2151 27.0195 47.2151 27.7093C47.2151 28.4659 47.5774 29.0556 48.3019 29.4784C49.0264 29.9013 50.1585 30.3574 51.6981 30.847C53.2377 31.3588 54.483 31.8484 55.434 32.3157C56.4075 32.783 57.2453 33.4618 57.9472 34.3519C58.6491 35.242 59 36.388 59 37.79C59 39.1252 58.6491 40.338 57.9472 41.4284C57.2679 42.5188 56.2717 43.3867 54.9585 44.032C53.6453 44.6773 52.0943 45 50.3057 45Z" fill="#121216"></path>
  <path fill-rule="evenodd" clip-rule="evenodd" d="M23.085 45L24.5939 40.5L25.742 37.0763L28.966 27.4615L32.1991 37.0763L33.3381 40.5L34.847 45H41L32.3654 21H25.6346L17 45H23.085Z" fill="#CC0000"></path>
  <path d="M25.6346 21H32.3654L29 12L25.6346 21Z" fill="#CC0000"></path>
</svg>
